<svg xmlns="http://www.w3.org/2000/svg" viewBox="0 0 800 520" width="800" height="520" role="img" aria-label="">

  <defs>
    <radialGradient id="matrix-a" cx="30%" cy="28%" r="55%">
      <stop offset="0%" stop-color="#7C3AED" stop-opacity=".62"/>
      <stop offset="100%" stop-color="#7C3AED" stop-opacity="0"/>
    </radialGradient>
    <radialGradient id="matrix-b" cx="76%" cy="70%" r="52%">
      <stop offset="0%" stop-color="#4F6BF0" stop-opacity=".38"/>
      <stop offset="100%" stop-color="#4F6BF0" stop-opacity="0"/>
    </radialGradient>
    <radialGradient id="matrix-c" cx="88%" cy="20%" r="34%">
      <stop offset="0%" stop-color="#22D3EE" stop-opacity=".22"/>
      <stop offset="100%" stop-color="#22D3EE" stop-opacity="0"/>
    </radialGradient>
    <linearGradient id="matrix-stroke" x1="0" y1="0" x2="1" y2="1">
      <stop offset="0%" stop-color="#7C3AED"/>
      <stop offset="55%" stop-color="#4F6BF0"/>
      <stop offset="100%" stop-color="#22D3EE"/>
    </linearGradient>
    <filter id="matrix-blur" x="-25%" y="-25%" width="150%" height="150%">
      <feGaussianBlur stdDeviation="52"/>
    </filter>
  </defs>
  <rect width="800" height="520" fill="#FFFFFF"/>
  <g filter="url(#matrix-blur)" opacity="0.85">
    <rect width="800" height="520" fill="url(#matrix-a)"/>
    <rect width="800" height="520" fill="url(#matrix-b)"/>
    <rect width="800" height="520" fill="url(#matrix-c)"/>
  </g>
  <rect x="120" y="110" width="280" height="150" fill="#22D3EE" fill-opacity=".12"/><line x1="120" y1="110" x2="120" y2="410" stroke="#0A1024" stroke-opacity=".25" stroke-width="1.6"/>
    <line x1="120" y1="410" x2="680" y2="410" stroke="#0A1024" stroke-opacity=".25" stroke-width="1.6"/>
    <line x1="400" y1="110" x2="400" y2="410" stroke="#0A1024" stroke-opacity=".1"/>
    <line x1="120" y1="260" x2="680" y2="260" stroke="#0A1024" stroke-opacity=".1"/><circle cx="352.0" cy="174.7" r="10" fill="#22D3EE" fill-opacity="0.95"/><circle cx="461.4" cy="220.9" r="6" fill="#7C3AED" fill-opacity="0.45"/><circle cx="635.5" cy="345.9" r="6" fill="#7C3AED" fill-opacity="0.45"/><circle cx="522.6" cy="342.2" r="6" fill="#7C3AED" fill-opacity="0.45"/><circle cx="624.2" cy="254.7" r="6" fill="#7C3AED" fill-opacity="0.45"/><circle cx="360.3" cy="280.0" r="6" fill="#7C3AED" fill-opacity="0.45"/><circle cx="232.0" cy="166.6" r="10" fill="#22D3EE" fill-opacity="0.95"/><circle cx="646.8" cy="315.6" r="6" fill="#7C3AED" fill-opacity="0.45"/><circle cx="542.6" cy="169.8" r="6" fill="#7C3AED" fill-opacity="0.45"/><circle cx="163.5" cy="278.7" r="6" fill="#7C3AED" fill-opacity="0.45"/><circle cx="245.8" cy="224.9" r="10" fill="#22D3EE" fill-opacity="0.95"/><circle cx="488.4" cy="280.1" r="6" fill="#7C3AED" fill-opacity="0.45"/><circle cx="634.7" cy="262.8" r="6" fill="#7C3AED" fill-opacity="0.45"/><circle cx="284.5" cy="273.5" r="6" fill="#7C3AED" fill-opacity="0.45"/><circle cx="499.6" cy="267.8" r="6" fill="#7C3AED" fill-opacity="0.45"/><circle cx="321.8" cy="383.4" r="6" fill="#7C3AED" fill-opacity="0.45"/>
</svg>
