<svg xmlns="http://www.w3.org/2000/svg" viewBox="0 0 1600 1000" width="1600" height="1000" role="img" aria-label="">

  <defs>
    <radialGradient id="hero-a" cx="30%" cy="28%" r="55%">
      <stop offset="0%" stop-color="#7C3AED" stop-opacity=".62"/>
      <stop offset="100%" stop-color="#7C3AED" stop-opacity="0"/>
    </radialGradient>
    <radialGradient id="hero-b" cx="76%" cy="70%" r="52%">
      <stop offset="0%" stop-color="#4F6BF0" stop-opacity=".38"/>
      <stop offset="100%" stop-color="#4F6BF0" stop-opacity="0"/>
    </radialGradient>
    <radialGradient id="hero-c" cx="88%" cy="20%" r="34%">
      <stop offset="0%" stop-color="#22D3EE" stop-opacity=".22"/>
      <stop offset="100%" stop-color="#22D3EE" stop-opacity="0"/>
    </radialGradient>
    <linearGradient id="hero-stroke" x1="0" y1="0" x2="1" y2="1">
      <stop offset="0%" stop-color="#7C3AED"/>
      <stop offset="55%" stop-color="#4F6BF0"/>
      <stop offset="100%" stop-color="#22D3EE"/>
    </linearGradient>
    <filter id="hero-blur" x="-25%" y="-25%" width="150%" height="150%">
      <feGaussianBlur stdDeviation="52"/>
    </filter>
  </defs>
  <rect width="1600" height="1000" fill="#0A1024"/>
  <g filter="url(#hero-blur)" opacity=".95">
    <rect width="1600" height="1000" fill="url(#hero-a)"/>
    <rect width="1600" height="1000" fill="url(#hero-b)"/>
    <rect width="1600" height="1000" fill="url(#hero-c)"/>
  </g>
  <g opacity=".7"><line x1="382" y1="913" x2="253" y2="874" stroke="#9B7BFF" stroke-opacity="0.246" stroke-width="1"/><line x1="382" y1="913" x2="607" y2="996" stroke="#9B7BFF" stroke-opacity="0.000" stroke-width="1"/><line x1="1483" y1="49" x2="1571" y2="122" stroke="#9B7BFF" stroke-opacity="0.293" stroke-width="1"/><line x1="1483" y1="49" x2="1416" y2="207" stroke="#9B7BFF" stroke-opacity="0.160" stroke-width="1"/><line x1="578" y1="53" x2="770" y2="92" stroke="#9B7BFF" stroke-opacity="0.103" stroke-width="1"/><line x1="578" y1="53" x2="730" y2="108" stroke="#9B7BFF" stroke-opacity="0.183" stroke-width="1"/><line x1="578" y1="53" x2="694" y2="179" stroke="#9B7BFF" stroke-opacity="0.160" stroke-width="1"/><line x1="578" y1="53" x2="564" y2="206" stroke="#9B7BFF" stroke-opacity="0.202" stroke-width="1"/><line x1="578" y1="53" x2="539" y2="101" stroke="#9B7BFF" stroke-opacity="0.416" stroke-width="1"/><line x1="723" y1="548" x2="820" y2="712" stroke="#9B7BFF" stroke-opacity="0.115" stroke-width="1"/><line x1="723" y1="548" x2="941" y2="493" stroke="#9B7BFF" stroke-opacity="0.035" stroke-width="1"/><line x1="723" y1="548" x2="594" y2="407" stroke="#9B7BFF" stroke-opacity="0.114" stroke-width="1"/><line x1="1244" y1="780" x2="1107" y2="760" stroke="#9B7BFF" stroke-opacity="0.237" stroke-width="1"/><line x1="1244" y1="780" x2="1257" y2="957" stroke="#9B7BFF" stroke-opacity="0.146" stroke-width="1"/><line x1="759" y1="852" x2="969" y2="926" stroke="#9B7BFF" stroke-opacity="0.040" stroke-width="1"/><line x1="759" y1="852" x2="820" y2="712" stroke="#9B7BFF" stroke-opacity="0.204" stroke-width="1"/><line x1="759" y1="852" x2="607" y2="996" stroke="#9B7BFF" stroke-opacity="0.071" stroke-width="1"/><line x1="759" y1="852" x2="869" y2="742" stroke="#9B7BFF" stroke-opacity="0.197" stroke-width="1"/><line x1="770" y1="92" x2="730" y2="108" stroke="#9B7BFF" stroke-opacity="0.459" stroke-width="1"/><line x1="770" y1="92" x2="694" y2="179" stroke="#9B7BFF" stroke-opacity="0.290" stroke-width="1"/><line x1="770" y1="92" x2="564" y2="206" stroke="#9B7BFF" stroke-opacity="0.011" stroke-width="1"/><line x1="770" y1="92" x2="705" y2="269" stroke="#9B7BFF" stroke-opacity="0.120" stroke-width="1"/><line x1="770" y1="92" x2="539" y2="101" stroke="#9B7BFF" stroke-opacity="0.021" stroke-width="1"/><line x1="1335" y1="358" x2="1326" y2="504" stroke="#9B7BFF" stroke-opacity="0.219" stroke-width="1"/><line x1="1335" y1="358" x2="1416" y2="207" stroke="#9B7BFF" stroke-opacity="0.160" stroke-width="1"/><line x1="1335" y1="358" x2="1216" y2="211" stroke="#9B7BFF" stroke-opacity="0.119" stroke-width="1"/><line x1="1335" y1="358" x2="1210" y2="417" stroke="#9B7BFF" stroke-opacity="0.237" stroke-width="1"/><line x1="1571" y1="122" x2="1416" y2="207" stroke="#9B7BFF" stroke-opacity="0.148" stroke-width="1"/><line x1="730" y1="108" x2="694" y2="179" stroke="#9B7BFF" stroke-opacity="0.374" stroke-width="1"/><line x1="730" y1="108" x2="564" y2="206" stroke="#9B7BFF" stroke-opacity="0.110" stroke-width="1"/><line x1="730" y1="108" x2="705" y2="269" stroke="#9B7BFF" stroke-opacity="0.180" stroke-width="1"/><line x1="730" y1="108" x2="539" y2="101" stroke="#9B7BFF" stroke-opacity="0.114" stroke-width="1"/><line x1="995" y1="773" x2="969" y2="926" stroke="#9B7BFF" stroke-opacity="0.198" stroke-width="1"/><line x1="995" y1="773" x2="820" y2="712" stroke="#9B7BFF" stroke-opacity="0.128" stroke-width="1"/><line x1="995" y1="773" x2="1107" y2="760" stroke="#9B7BFF" stroke-opacity="0.297" stroke-width="1"/><line x1="995" y1="773" x2="869" y2="742" stroke="#9B7BFF" stroke-opacity="0.257" stroke-width="1"/><line x1="969" y1="926" x2="1107" y2="760" stroke="#9B7BFF" stroke-opacity="0.056" stroke-width="1"/><line x1="969" y1="926" x2="869" y2="742" stroke="#9B7BFF" stroke-opacity="0.071" stroke-width="1"/><line x1="945" y1="353" x2="941" y2="493" stroke="#9B7BFF" stroke-opacity="0.233" stroke-width="1"/><line x1="820" y1="712" x2="869" y2="742" stroke="#9B7BFF" stroke-opacity="0.426" stroke-width="1"/><line x1="253" y1="874" x2="327" y2="679" stroke="#9B7BFF" stroke-opacity="0.073" stroke-width="1"/><line x1="285" y1="254" x2="83" y2="294" stroke="#9B7BFF" stroke-opacity="0.080" stroke-width="1"/><line x1="694" y1="179" x2="564" y2="206" stroke="#9B7BFF" stroke-opacity="0.250" stroke-width="1"/><line x1="694" y1="179" x2="705" y2="269" stroke="#9B7BFF" stroke-opacity="0.348" stroke-width="1"/><line x1="694" y1="179" x2="539" y2="101" stroke="#9B7BFF" stroke-opacity="0.155" stroke-width="1"/><line x1="1107" y1="760" x2="869" y2="742" stroke="#9B7BFF" stroke-opacity="0.003" stroke-width="1"/><line x1="594" y1="407" x2="564" y2="206" stroke="#9B7BFF" stroke-opacity="0.086" stroke-width="1"/><line x1="594" y1="407" x2="705" y2="269" stroke="#9B7BFF" stroke-opacity="0.147" stroke-width="1"/><line x1="1326" y1="504" x2="1210" y2="417" stroke="#9B7BFF" stroke-opacity="0.222" stroke-width="1"/><line x1="1416" y1="207" x2="1216" y2="211" stroke="#9B7BFF" stroke-opacity="0.093" stroke-width="1"/><line x1="1216" y1="211" x2="1210" y2="417" stroke="#9B7BFF" stroke-opacity="0.079" stroke-width="1"/><line x1="564" y1="206" x2="705" y2="269" stroke="#9B7BFF" stroke-opacity="0.200" stroke-width="1"/><line x1="564" y1="206" x2="539" y2="101" stroke="#9B7BFF" stroke-opacity="0.308" stroke-width="1"/><line x1="705" y1="269" x2="539" y2="101" stroke="#9B7BFF" stroke-opacity="0.009" stroke-width="1"/><circle cx="382" cy="913" r="4" fill="#22D3EE" fill-opacity=".8"/><circle cx="1483" cy="49" r="5" fill="#9B7BFF" fill-opacity=".8"/><circle cx="578" cy="53" r="2" fill="#9B7BFF" fill-opacity=".8"/><circle cx="1574" cy="973" r="4" fill="#60A5FA" fill-opacity=".8"/><circle cx="723" cy="548" r="4" fill="#9B7BFF" fill-opacity=".8"/><circle cx="1244" cy="780" r="3" fill="#9B7BFF" fill-opacity=".8"/><circle cx="759" cy="852" r="3" fill="#60A5FA" fill-opacity=".8"/><circle cx="770" cy="92" r="4" fill="#22D3EE" fill-opacity=".8"/><circle cx="1335" cy="358" r="3" fill="#9B7BFF" fill-opacity=".8"/><circle cx="1571" cy="122" r="3" fill="#60A5FA" fill-opacity=".8"/><circle cx="730" cy="108" r="2" fill="#9B7BFF" fill-opacity=".8"/><circle cx="995" cy="773" r="2" fill="#9B7BFF" fill-opacity=".8"/><circle cx="969" cy="926" r="3" fill="#60A5FA" fill-opacity=".8"/><circle cx="945" cy="353" r="3" fill="#9B7BFF" fill-opacity=".8"/><circle cx="820" cy="712" r="3" fill="#22D3EE" fill-opacity=".8"/><circle cx="253" cy="874" r="4" fill="#60A5FA" fill-opacity=".8"/><circle cx="607" cy="996" r="3" fill="#9B7BFF" fill-opacity=".8"/><circle cx="285" cy="254" r="5" fill="#9B7BFF" fill-opacity=".8"/><circle cx="941" cy="493" r="3" fill="#60A5FA" fill-opacity=".8"/><circle cx="694" cy="179" r="2" fill="#9B7BFF" fill-opacity=".8"/><circle cx="1107" cy="760" r="2" fill="#9B7BFF" fill-opacity=".8"/><circle cx="869" cy="742" r="5" fill="#22D3EE" fill-opacity=".8"/><circle cx="594" cy="407" r="4" fill="#9B7BFF" fill-opacity=".8"/><circle cx="1326" cy="504" r="3" fill="#9B7BFF" fill-opacity=".8"/><circle cx="1257" cy="957" r="3" fill="#60A5FA" fill-opacity=".8"/><circle cx="1416" cy="207" r="3" fill="#9B7BFF" fill-opacity=".8"/><circle cx="1519" cy="715" r="3" fill="#9B7BFF" fill-opacity=".8"/><circle cx="83" cy="294" r="4" fill="#60A5FA" fill-opacity=".8"/><circle cx="1216" cy="211" r="4" fill="#22D3EE" fill-opacity=".8"/><circle cx="1210" cy="417" r="3" fill="#9B7BFF" fill-opacity=".8"/><circle cx="564" cy="206" r="5" fill="#60A5FA" fill-opacity=".8"/><circle cx="327" cy="679" r="4" fill="#9B7BFF" fill-opacity=".8"/><circle cx="705" cy="269" r="4" fill="#9B7BFF" fill-opacity=".8"/><circle cx="539" cy="101" r="3" fill="#60A5FA" fill-opacity=".8"/></g>
</svg>
