<svg xmlns="http://www.w3.org/2000/svg" viewBox="0 0 800 520" width="800" height="520" role="img" aria-label="">

  <defs>
    <radialGradient id="confidence-a" cx="30%" cy="28%" r="55%">
      <stop offset="0%" stop-color="#7C3AED" stop-opacity=".62"/>
      <stop offset="100%" stop-color="#7C3AED" stop-opacity="0"/>
    </radialGradient>
    <radialGradient id="confidence-b" cx="76%" cy="70%" r="52%">
      <stop offset="0%" stop-color="#4F6BF0" stop-opacity=".38"/>
      <stop offset="100%" stop-color="#4F6BF0" stop-opacity="0"/>
    </radialGradient>
    <radialGradient id="confidence-c" cx="88%" cy="20%" r="34%">
      <stop offset="0%" stop-color="#22D3EE" stop-opacity=".22"/>
      <stop offset="100%" stop-color="#22D3EE" stop-opacity="0"/>
    </radialGradient>
    <linearGradient id="confidence-stroke" x1="0" y1="0" x2="1" y2="1">
      <stop offset="0%" stop-color="#7C3AED"/>
      <stop offset="55%" stop-color="#4F6BF0"/>
      <stop offset="100%" stop-color="#22D3EE"/>
    </linearGradient>
    <filter id="confidence-blur" x="-25%" y="-25%" width="150%" height="150%">
      <feGaussianBlur stdDeviation="52"/>
    </filter>
  </defs>
  <rect width="800" height="520" fill="#FFFFFF"/>
  <g filter="url(#confidence-blur)" opacity="0.85">
    <rect width="800" height="520" fill="url(#confidence-a)"/>
    <rect width="800" height="520" fill="url(#confidence-b)"/>
    <rect width="800" height="520" fill="url(#confidence-c)"/>
  </g>
  <path d="M 60 62.1 C 284 62.1 420 270 640 270" fill="none" stroke="#4F6BF0" stroke-opacity="0.32" stroke-width="2"/><path d="M 60 91.6 C 264 91.6 420 270 640 270" fill="none" stroke="#7C3AED" stroke-opacity="0.40" stroke-width="1.4"/><path d="M 60 112.4 C 263 112.4 420 270 640 270" fill="none" stroke="#7C3AED" stroke-opacity="0.33" stroke-width="1.4"/><path d="M 60 143.9 C 328 143.9 420 270 640 270" fill="none" stroke="#7C3AED" stroke-opacity="0.30" stroke-width="1.4"/><path d="M 60 166.7 C 281 166.7 420 270 640 270" fill="none" stroke="#4F6BF0" stroke-opacity="0.35" stroke-width="2"/><path d="M 60 191.2 C 272 191.2 420 270 640 270" fill="none" stroke="#7C3AED" stroke-opacity="0.22" stroke-width="1.4"/><path d="M 60 222.4 C 298 222.4 420 270 640 270" fill="none" stroke="#7C3AED" stroke-opacity="0.34" stroke-width="1.4"/><path d="M 60 246.0 C 284 246.0 420 270 640 270" fill="none" stroke="#7C3AED" stroke-opacity="0.24" stroke-width="1.4"/><path d="M 60 271.8 C 311 271.8 420 270 640 270" fill="none" stroke="#4F6BF0" stroke-opacity="0.46" stroke-width="2"/><path d="M 60 300.4 C 350 300.4 420 270 640 270" fill="none" stroke="#7C3AED" stroke-opacity="0.21" stroke-width="1.4"/><path d="M 60 325.3 C 310 325.3 420 270 640 270" fill="none" stroke="#7C3AED" stroke-opacity="0.29" stroke-width="1.4"/><path d="M 60 351.8 C 336 351.8 420 270 640 270" fill="none" stroke="#7C3AED" stroke-opacity="0.29" stroke-width="1.4"/><path d="M 60 377.8 C 294 377.8 420 270 640 270" fill="none" stroke="#4F6BF0" stroke-opacity="0.30" stroke-width="2"/><path d="M 60 403.0 C 306 403.0 420 270 640 270" fill="none" stroke="#7C3AED" stroke-opacity="0.18" stroke-width="1.4"/><path d="M 60 427.0 C 298 427.0 420 270 640 270" fill="none" stroke="#7C3AED" stroke-opacity="0.27" stroke-width="1.4"/><path d="M 60 450.9 C 344 450.9 420 270 640 270" fill="none" stroke="#7C3AED" stroke-opacity="0.25" stroke-width="1.4"/>
  <circle cx="640" cy="270" r="10" fill="#7C3AED"/>
  <circle cx="640" cy="270" r="26" fill="none" stroke="#7C3AED" stroke-opacity=".32" stroke-width="2"/>
  <circle cx="640" cy="270" r="46" fill="none" stroke="#4F6BF0" stroke-opacity=".3" stroke-width="1.6"/>
  <line x1="640" y1="270" x2="740" y2="270" stroke="#4F6BF0" stroke-width="2.4" stroke-linecap="round"/>
</svg>
