<svg xmlns="http://www.w3.org/2000/svg" viewBox="0 0 800 520" width="800" height="520" role="img" aria-label="">

  <defs>
    <radialGradient id="predict-a" cx="30%" cy="28%" r="55%">
      <stop offset="0%" stop-color="#7C3AED" stop-opacity=".62"/>
      <stop offset="100%" stop-color="#7C3AED" stop-opacity="0"/>
    </radialGradient>
    <radialGradient id="predict-b" cx="76%" cy="70%" r="52%">
      <stop offset="0%" stop-color="#4F6BF0" stop-opacity=".38"/>
      <stop offset="100%" stop-color="#4F6BF0" stop-opacity="0"/>
    </radialGradient>
    <radialGradient id="predict-c" cx="88%" cy="20%" r="34%">
      <stop offset="0%" stop-color="#22D3EE" stop-opacity=".22"/>
      <stop offset="100%" stop-color="#22D3EE" stop-opacity="0"/>
    </radialGradient>
    <linearGradient id="predict-stroke" x1="0" y1="0" x2="1" y2="1">
      <stop offset="0%" stop-color="#7C3AED"/>
      <stop offset="55%" stop-color="#4F6BF0"/>
      <stop offset="100%" stop-color="#22D3EE"/>
    </linearGradient>
    <filter id="predict-blur" x="-25%" y="-25%" width="150%" height="150%">
      <feGaussianBlur stdDeviation="52"/>
    </filter>
  </defs>
  <rect width="800" height="520" fill="#FFFFFF"/>
  <g filter="url(#predict-blur)" opacity="0.85">
    <rect width="800" height="520" fill="url(#predict-a)"/>
    <rect width="800" height="520" fill="url(#predict-b)"/>
    <rect width="800" height="520" fill="url(#predict-c)"/>
  </g>
  <line x1="40" y1="110" x2="760" y2="110" stroke="#0A1024" stroke-opacity=".07" stroke-width="1"/><line x1="40" y1="172" x2="760" y2="172" stroke="#0A1024" stroke-opacity=".07" stroke-width="1"/><line x1="40" y1="234" x2="760" y2="234" stroke="#0A1024" stroke-opacity=".07" stroke-width="1"/><line x1="40" y1="296" x2="760" y2="296" stroke="#0A1024" stroke-opacity=".07" stroke-width="1"/><line x1="40" y1="358" x2="760" y2="358" stroke="#0A1024" stroke-opacity=".07" stroke-width="1"/>
  <path d="M 368 190.1114959984702 L 368.0 190.1 L 395.0 183.3 L 422.0 176.5 L 449.0 169.7 L 476.0 162.9 L 503.0 156.1 L 530.0 149.3 L 557.0 142.5 L 584.0 135.7 L 611.0 128.9 L 638.0 122.1 L 665.0 115.3 L 692.0 108.5 L 719.0 101.7 L 746.0 94.9 L 773.0 88.1 L 800.0 81.3 L 800.0 196.5 L 773.0 196.1 L 746.0 195.7 L 719.0 195.3 L 692.0 194.9 L 665.0 194.5 L 638.0 194.1 L 611.0 193.7 L 584.0 193.3 L 557.0 192.9 L 530.0 192.5 L 503.0 192.1 L 476.0 191.7 L 449.0 191.3 L 422.0 190.9 L 395.0 190.5 L 368.0 190.1 Z" fill="#4F6BF0" fill-opacity=".22"/>
  <path d="M 368 190.1114959984702 L 368.0 190.1 L 395.0 186.9 L 422.0 183.7 L 449.0 180.5 L 476.0 177.3 L 503.0 174.1 L 530.0 170.9 L 557.0 167.7 L 584.0 164.5 L 611.0 161.3 L 638.0 158.1 L 665.0 154.9 L 692.0 151.7 L 719.0 148.5 L 746.0 145.3 L 773.0 142.1 L 800.0 138.9" fill="none" stroke="#4F6BF0" stroke-width="2.5" stroke-dasharray="7 7" stroke-linecap="round"/>
  <path d="M 60.0 376.5 L 74.0 357.7 L 88.0 338.9 L 102.0 318.9 L 116.0 316.8 L 130.0 313.2 L 144.0 308.5 L 158.0 306.0 L 172.0 316.8 L 186.0 316.2 L 200.0 311.4 L 214.0 313.1 L 228.0 297.0 L 242.0 291.7 L 256.0 271.7 L 270.0 248.3 L 284.0 231.6 L 298.0 214.0 L 312.0 208.3 L 326.0 189.3 L 340.0 192.3 L 354.0 194.1 L 368.0 190.1" fill="none" stroke="url(#predict-stroke)" stroke-width="3" stroke-linecap="round" stroke-linejoin="round"/>
  <circle cx="368" cy="190.1" r="7" fill="#7C3AED"/>
  <circle cx="368" cy="190.1" r="14" fill="none" stroke="#7C3AED" stroke-opacity=".35" stroke-width="2"/>
</svg>
