<svg xmlns="http://www.w3.org/2000/svg" viewBox="0 0 800 520" width="800" height="520" role="img" aria-label="">

  <defs>
    <radialGradient id="mfg-a" cx="28%" cy="26%" r="56%">
      <stop offset="0%" stop-color="#7C3AED" stop-opacity=".60"/>
      <stop offset="100%" stop-color="#7C3AED" stop-opacity="0"/>
    </radialGradient>
    <radialGradient id="mfg-b" cx="74%" cy="72%" r="52%">
      <stop offset="0%" stop-color="#4F6BF0" stop-opacity=".36"/>
      <stop offset="100%" stop-color="#4F6BF0" stop-opacity="0"/>
    </radialGradient>
    <radialGradient id="mfg-c" cx="86%" cy="18%" r="34%">
      <stop offset="0%" stop-color="#22D3EE" stop-opacity=".22"/>
      <stop offset="100%" stop-color="#22D3EE" stop-opacity="0"/>
    </radialGradient>
    <linearGradient id="mfg-stroke" x1="0" y1="0" x2="1" y2="1">
      <stop offset="0%" stop-color="#7C3AED"/>
      <stop offset="55%" stop-color="#4F6BF0"/>
      <stop offset="100%" stop-color="#22D3EE"/>
    </linearGradient>
    <filter id="mfg-blur" x="-25%" y="-25%" width="150%" height="150%">
      <feGaussianBlur stdDeviation="52"/>
    </filter>
    <marker id="mfg-arrow" viewBox="0 0 10 10" refX="9" refY="5"
            markerWidth="6" markerHeight="6" orient="auto-start-reverse">
      <path d="M0,0 L10,5 L0,10 z" fill="#0A1024" fill-opacity=".55"/>
    </marker>
  </defs>
  <rect width="800" height="520" fill="#FFFFFF"/>
  <g filter="url(#mfg-blur)" opacity="0.85">
    <rect width="800" height="520" fill="url(#mfg-a)"/>
    <rect width="800" height="520" fill="url(#mfg-b)"/>
    <rect width="800" height="520" fill="url(#mfg-c)"/>
  </g>
<rect x="56" y="70" width="190" height="108" rx="10"
     fill="#FFFFFF" fill-opacity=".92"
     stroke="#0A1024"
     stroke-opacity="0.18" stroke-width="1.25"/><circle cx="84" cy="104" r="6" fill="#0A1024" fill-opacity="0.5"/><circle cx="112" cy="104" r="6" fill="#0A1024" fill-opacity="0.5"/><circle cx="140" cy="104" r="6" fill="#0A1024" fill-opacity="0.5"/><circle cx="168" cy="104" r="6" fill="#0A1024" fill-opacity="0.16"/><circle cx="196" cy="104" r="6" fill="#0A1024" fill-opacity="0.16"/><circle cx="224" cy="104" r="6" fill="#0A1024" fill-opacity="0.16"/><rect x="80" y="128" width="71.5"
       height="3.5" rx="1.75" fill="#0A1024" fill-opacity="0.16"/><rect x="80" y="139" width="119.6"
       height="3.5" rx="1.75" fill="#0A1024" fill-opacity="0.21000000000000002"/><rect x="80" y="150" width="109.2"
       height="3.5" rx="1.75" fill="#0A1024" fill-opacity="0.26"/><path d="M246,124 C320,124 340,258 396,258" fill="none"
     stroke="url(#mfg-stroke)" stroke-opacity="0.85"
     stroke-width="2.25" stroke-linecap="round"
     
     marker-end="url(#mfg-arrow)"/><rect x="56" y="202" width="190" height="108" rx="10"
     fill="#FFFFFF" fill-opacity=".92"
     stroke="#0A1024"
     stroke-opacity="0.18" stroke-width="1.25"/><circle cx="84" cy="236" r="6" fill="#0A1024" fill-opacity="0.5"/><circle cx="112" cy="236" r="6" fill="#0A1024" fill-opacity="0.5"/><circle cx="140" cy="236" r="6" fill="#0A1024" fill-opacity="0.5"/><circle cx="168" cy="236" r="6" fill="#0A1024" fill-opacity="0.5"/><circle cx="196" cy="236" r="6" fill="#0A1024" fill-opacity="0.16"/><circle cx="224" cy="236" r="6" fill="#0A1024" fill-opacity="0.16"/><rect x="80" y="260" width="71.5"
       height="3.5" rx="1.75" fill="#0A1024" fill-opacity="0.16"/><rect x="80" y="271" width="119.6"
       height="3.5" rx="1.75" fill="#0A1024" fill-opacity="0.21000000000000002"/><rect x="80" y="282" width="109.2"
       height="3.5" rx="1.75" fill="#0A1024" fill-opacity="0.26"/><path d="M246,256 C320,256 340,258 396,258" fill="none"
     stroke="url(#mfg-stroke)" stroke-opacity="0.85"
     stroke-width="2.25" stroke-linecap="round"
     
     marker-end="url(#mfg-arrow)"/><rect x="56" y="334" width="190" height="108" rx="10"
     fill="#FFFFFF" fill-opacity=".92"
     stroke="#0A1024"
     stroke-opacity="0.18" stroke-width="1.25"/><circle cx="84" cy="368" r="6" fill="#0A1024" fill-opacity="0.5"/><circle cx="112" cy="368" r="6" fill="#0A1024" fill-opacity="0.5"/><circle cx="140" cy="368" r="6" fill="#0A1024" fill-opacity="0.5"/><circle cx="168" cy="368" r="6" fill="#0A1024" fill-opacity="0.5"/><circle cx="196" cy="368" r="6" fill="#0A1024" fill-opacity="0.5"/><circle cx="224" cy="368" r="6" fill="#0A1024" fill-opacity="0.16"/><rect x="80" y="392" width="71.5"
       height="3.5" rx="1.75" fill="#0A1024" fill-opacity="0.16"/><rect x="80" y="403" width="119.6"
       height="3.5" rx="1.75" fill="#0A1024" fill-opacity="0.21000000000000002"/><rect x="80" y="414" width="109.2"
       height="3.5" rx="1.75" fill="#0A1024" fill-opacity="0.26"/><path d="M246,388 C320,388 340,258 396,258" fill="none"
     stroke="url(#mfg-stroke)" stroke-opacity="0.85"
     stroke-width="2.25" stroke-linecap="round"
     
     marker-end="url(#mfg-arrow)"/><rect x="396" y="150" width="168" height="216" rx="10"
     fill="#FFFFFF" fill-opacity=".92"
     stroke="url(#mfg-stroke)"
     stroke-opacity="1" stroke-width="2"/><rect x="420" y="180" width="22" height="9" rx="4.5"
          fill="#0A1024" fill-opacity="0.1"/><rect x="452" y="180" width="22" height="9" rx="4.5"
          fill="#0A1024" fill-opacity="0.19"/><rect x="484" y="180" width="22" height="9" rx="4.5"
          fill="#0A1024" fill-opacity="0.28"/><rect x="516" y="180" width="22" height="9" rx="4.5"
          fill="#0A1024" fill-opacity="0.37"/><rect x="420" y="208" width="22" height="9" rx="4.5"
          fill="#0A1024" fill-opacity="0.19"/><rect x="452" y="208" width="22" height="9" rx="4.5"
          fill="#0A1024" fill-opacity="0.28"/><rect x="484" y="208" width="22" height="9" rx="4.5"
          fill="#0A1024" fill-opacity="0.37"/><rect x="516" y="208" width="22" height="9" rx="4.5"
          fill="#0A1024" fill-opacity="0.1"/><rect x="420" y="236" width="22" height="9" rx="4.5"
          fill="#0A1024" fill-opacity="0.28"/><rect x="452" y="236" width="22" height="9" rx="4.5"
          fill="#0A1024" fill-opacity="0.37"/><rect x="484" y="236" width="22" height="9" rx="4.5"
          fill="#0A1024" fill-opacity="0.1"/><rect x="516" y="236" width="22" height="9" rx="4.5"
          fill="#0A1024" fill-opacity="0.19"/><rect x="420" y="264" width="22" height="9" rx="4.5"
          fill="#0A1024" fill-opacity="0.37"/><rect x="452" y="264" width="22" height="9" rx="4.5"
          fill="#0A1024" fill-opacity="0.1"/><rect x="484" y="264" width="22" height="9" rx="4.5"
          fill="#0A1024" fill-opacity="0.19"/><rect x="516" y="264" width="22" height="9" rx="4.5"
          fill="#0A1024" fill-opacity="0.28"/><rect x="420" y="292" width="22" height="9" rx="4.5"
          fill="#0A1024" fill-opacity="0.1"/><rect x="452" y="292" width="22" height="9" rx="4.5"
          fill="#0A1024" fill-opacity="0.19"/><rect x="484" y="292" width="22" height="9" rx="4.5"
          fill="#0A1024" fill-opacity="0.28"/><rect x="516" y="292" width="22" height="9" rx="4.5"
          fill="#0A1024" fill-opacity="0.37"/><rect x="420" y="320" width="22" height="9" rx="4.5"
          fill="#0A1024" fill-opacity="0.19"/><rect x="452" y="320" width="22" height="9" rx="4.5"
          fill="#0A1024" fill-opacity="0.28"/><rect x="484" y="320" width="22" height="9" rx="4.5"
          fill="#0A1024" fill-opacity="0.37"/><rect x="516" y="320" width="22" height="9" rx="4.5"
          fill="#0A1024" fill-opacity="0.1"/><path d="M564,258 H620" fill="none"
     stroke="url(#mfg-stroke)" stroke-opacity="0.85"
     stroke-width="2.25" stroke-linecap="round"
     
     marker-end="url(#mfg-arrow)"/><rect x="620" y="196" width="124" height="124" rx="10"
     fill="#FFFFFF" fill-opacity=".92"
     stroke="url(#mfg-stroke)"
     stroke-opacity="1" stroke-width="2"/><path d="M642,292 L672,254 L698,272 L724,224" fill="none" stroke="url(#mfg-stroke)"
      stroke-width="2.5" stroke-linecap="round" stroke-linejoin="round"/>
</svg>
