<svg xmlns="http://www.w3.org/2000/svg" viewBox="0 0 800 520" width="800" height="520" role="img" aria-label="">

  <defs>
    <radialGradient id="ora-a" cx="28%" cy="26%" r="56%">
      <stop offset="0%" stop-color="#7C3AED" stop-opacity=".60"/>
      <stop offset="100%" stop-color="#7C3AED" stop-opacity="0"/>
    </radialGradient>
    <radialGradient id="ora-b" cx="74%" cy="72%" r="52%">
      <stop offset="0%" stop-color="#4F6BF0" stop-opacity=".36"/>
      <stop offset="100%" stop-color="#4F6BF0" stop-opacity="0"/>
    </radialGradient>
    <radialGradient id="ora-c" cx="86%" cy="18%" r="34%">
      <stop offset="0%" stop-color="#22D3EE" stop-opacity=".22"/>
      <stop offset="100%" stop-color="#22D3EE" stop-opacity="0"/>
    </radialGradient>
    <linearGradient id="ora-stroke" x1="0" y1="0" x2="1" y2="1">
      <stop offset="0%" stop-color="#7C3AED"/>
      <stop offset="55%" stop-color="#4F6BF0"/>
      <stop offset="100%" stop-color="#22D3EE"/>
    </linearGradient>
    <filter id="ora-blur" x="-25%" y="-25%" width="150%" height="150%">
      <feGaussianBlur stdDeviation="52"/>
    </filter>
    <marker id="ora-arrow" viewBox="0 0 10 10" refX="9" refY="5"
            markerWidth="6" markerHeight="6" orient="auto-start-reverse">
      <path d="M0,0 L10,5 L0,10 z" fill="#0A1024" fill-opacity=".55"/>
    </marker>
  </defs>
  <rect width="800" height="520" fill="#FFFFFF"/>
  <g filter="url(#ora-blur)" opacity="0.85">
    <rect width="800" height="520" fill="url(#ora-a)"/>
    <rect width="800" height="520" fill="url(#ora-b)"/>
    <rect width="800" height="520" fill="url(#ora-c)"/>
  </g>
<rect x="44" y="64" width="132" height="88" rx="10"
     fill="#FFFFFF" fill-opacity=".92"
     stroke="#0A1024"
     stroke-opacity="0.18" stroke-width="1.25"/><rect x="62" y="86" width="52.8"
       height="3.5" rx="1.75" fill="#0A1024" fill-opacity="0.16"/><rect x="62" y="97" width="88.3"
       height="3.5" rx="1.75" fill="#0A1024" fill-opacity="0.21000000000000002"/><rect x="62" y="108" width="80.6"
       height="3.5" rx="1.75" fill="#0A1024" fill-opacity="0.26"/><rect x="62" y="119" width="73.0"
       height="3.5" rx="1.75" fill="#0A1024" fill-opacity="0.16"/><path d="M176,108 C214,108 214,244 246,244" fill="none"
     stroke="#0A1024" stroke-opacity="0.22"
     stroke-width="1.5" stroke-linecap="round"
     
     marker-end="url(#ora-arrow)"/><rect x="44" y="196" width="132" height="88" rx="10"
     fill="#FFFFFF" fill-opacity=".92"
     stroke="#0A1024"
     stroke-opacity="0.18" stroke-width="1.25"/><rect x="62" y="218" width="52.8"
       height="3.5" rx="1.75" fill="#0A1024" fill-opacity="0.16"/><rect x="62" y="229" width="88.3"
       height="3.5" rx="1.75" fill="#0A1024" fill-opacity="0.21000000000000002"/><rect x="62" y="240" width="80.6"
       height="3.5" rx="1.75" fill="#0A1024" fill-opacity="0.26"/><rect x="62" y="251" width="73.0"
       height="3.5" rx="1.75" fill="#0A1024" fill-opacity="0.16"/><path d="M176,240 C214,240 214,244 246,244" fill="none"
     stroke="#0A1024" stroke-opacity="0.22"
     stroke-width="1.5" stroke-linecap="round"
     
     marker-end="url(#ora-arrow)"/><rect x="44" y="328" width="132" height="88" rx="10"
     fill="#FFFFFF" fill-opacity=".92"
     stroke="#0A1024"
     stroke-opacity="0.18" stroke-width="1.25"/><rect x="62" y="350" width="52.8"
       height="3.5" rx="1.75" fill="#0A1024" fill-opacity="0.16"/><rect x="62" y="361" width="88.3"
       height="3.5" rx="1.75" fill="#0A1024" fill-opacity="0.21000000000000002"/><rect x="62" y="372" width="80.6"
       height="3.5" rx="1.75" fill="#0A1024" fill-opacity="0.26"/><rect x="62" y="383" width="73.0"
       height="3.5" rx="1.75" fill="#0A1024" fill-opacity="0.16"/><path d="M176,372 C214,372 214,244 246,244" fill="none"
     stroke="#0A1024" stroke-opacity="0.22"
     stroke-width="1.5" stroke-linecap="round"
     
     marker-end="url(#ora-arrow)"/><rect x="246" y="176" width="104" height="136" rx="10"
     fill="#FFFFFF" fill-opacity=".92"
     stroke="url(#ora-stroke)"
     stroke-opacity="1" stroke-width="2"/><rect x="268" y="208" width="34.1"
       height="3.5" rx="1.75" fill="#0A1024" fill-opacity="0.16"/><rect x="268" y="219" width="57.0"
       height="3.5" rx="1.75" fill="#0A1024" fill-opacity="0.21000000000000002"/><rect x="268" y="230" width="52.1"
       height="3.5" rx="1.75" fill="#0A1024" fill-opacity="0.26"/><rect x="268" y="241" width="47.1"
       height="3.5" rx="1.75" fill="#0A1024" fill-opacity="0.16"/><rect x="268" y="252" width="42.2"
       height="3.5" rx="1.75" fill="#0A1024" fill-opacity="0.21000000000000002"/><rect x="268" y="263" width="37.2"
       height="3.5" rx="1.75" fill="#0A1024" fill-opacity="0.26"/><path d="M350,244 C378,244 380,172 404,172" fill="none"
     stroke="url(#ora-stroke)" stroke-opacity="0.85"
     stroke-width="2.25" stroke-linecap="round"
     
     marker-end="url(#ora-arrow)"/><rect x="404" y="128" width="126" height="88" rx="10"
     fill="#FFFFFF" fill-opacity=".92"
     stroke="#0A1024"
     stroke-opacity="0.18" stroke-width="1.25"/><circle cx="434" cy="172" r="5" fill="#0A1024" fill-opacity="0.35"/><circle cx="467" cy="172" r="5" fill="#0A1024" fill-opacity="0.35"/><circle cx="500" cy="172" r="5" fill="#0A1024" fill-opacity="0.35"/><path d="M530,172 C560,172 566,244 596,244" fill="none"
     stroke="url(#ora-stroke)" stroke-opacity="0.85"
     stroke-width="2.25" stroke-linecap="round"
     
     marker-end="url(#ora-arrow)"/><path d="M350,244 C378,244 380,344 404,344" fill="none"
     stroke="url(#ora-stroke)" stroke-opacity="0.85"
     stroke-width="2.25" stroke-linecap="round"
     
     marker-end="url(#ora-arrow)"/><rect x="404" y="300" width="126" height="88" rx="10"
     fill="#FFFFFF" fill-opacity=".92"
     stroke="#0A1024"
     stroke-opacity="0.18" stroke-width="1.25"/><circle cx="434" cy="344" r="5" fill="#0A1024" fill-opacity="0.35"/><circle cx="467" cy="344" r="5" fill="#0A1024" fill-opacity="0.35"/><circle cx="500" cy="344" r="5" fill="#0A1024" fill-opacity="0.35"/><path d="M530,344 C560,344 566,244 596,244" fill="none"
     stroke="url(#ora-stroke)" stroke-opacity="0.85"
     stroke-width="2.25" stroke-linecap="round"
     
     marker-end="url(#ora-arrow)"/><g>
    <path d="M604,169 v150 a64,12 0 0 0 128,0 v-150z"
      fill="#FFFFFF" fill-opacity=".92"
      stroke="url(#ora-stroke)" stroke-opacity="1"
      stroke-width="2"/>
    <ellipse cx="668" cy="169" rx="64" ry="12"
      fill="#FFFFFF" stroke="url(#ora-stroke)"
      stroke-opacity="1" stroke-width="2"/>
  </g><rect x="624" y="220" width="48.4"
       height="3.5" rx="1.75" fill="#0A1024" fill-opacity="0.16"/><rect x="624" y="231" width="81.0"
       height="3.5" rx="1.75" fill="#0A1024" fill-opacity="0.21000000000000002"/><rect x="624" y="242" width="73.9"
       height="3.5" rx="1.75" fill="#0A1024" fill-opacity="0.26"/><rect x="624" y="253" width="66.9"
       height="3.5" rx="1.75" fill="#0A1024" fill-opacity="0.16"/><path d="M668,326 C640,404 360,412 298,326" fill="none"
     stroke="#0A1024" stroke-opacity="0.22"
     stroke-width="1.5" stroke-linecap="round"
     stroke-dasharray="6 7"
     marker-end="url(#ora-arrow)"/><rect x="246" y="396" width="104" height="72" rx="10"
     fill="#FFFFFF" fill-opacity=".92"
     stroke="#0A1024"
     stroke-opacity="0.18" stroke-width="1.25"/><rect x="266" y="418" width="35.2"
       height="3.5" rx="1.75" fill="#0A1024" fill-opacity="0.16"/><rect x="266" y="429" width="58.9"
       height="3.5" rx="1.75" fill="#0A1024" fill-opacity="0.21000000000000002"/><rect x="266" y="440" width="53.8"
       height="3.5" rx="1.75" fill="#0A1024" fill-opacity="0.26"/><path d="M350,432 H596" fill="none"
     stroke="#0A1024" stroke-opacity="0.22"
     stroke-width="1.5" stroke-linecap="round"
     stroke-dasharray="4 6"
     marker-end="url(#ora-arrow)"/><path d="M612,432 l14,14 l26,-30" fill="none" stroke="url(#ora-stroke)"
      stroke-width="3" stroke-linecap="round" stroke-linejoin="round"/>
</svg>
